<svg xmlns="http://www.w3.org/2000/svg" width="50" height="50" viewBox="0 0 50 50">
  <g id="패스_156" data-name="패스 156" fill="#fff">
    <path d="M 25 45 C 19.65780067443848 45 14.63536643981934 42.91963195800781 10.85786628723145 39.14213180541992 C 7.080366611480713 35.36463165283203 5 30.34219932556152 5 25 C 5 19.65780067443848 7.080366611480713 14.63536643981934 10.85786628723145 10.85786628723145 C 14.63536643981934 7.080366611480713 19.65780067443848 5 25 5 C 30.34219932556152 5 35.36463165283203 7.080366611480713 39.14213180541992 10.85786628723145 C 42.91963195800781 14.63536643981934 45 19.65780067443848 45 25 C 45 30.34219932556152 42.91963195800781 35.36463165283203 39.14213180541992 39.14213180541992 C 35.36463165283203 42.91963195800781 30.34219932556152 45 25 45 Z" stroke="none"/>
    <path d="M 25 10 C 16.72896575927734 10 10 16.72896575927734 10 25 C 10 33.27103424072266 16.72896575927734 40 25 40 C 33.27103424072266 40 40 33.27103424072266 40 25 C 40 16.72896575927734 33.27103424072266 10 25 10 M 25 0 C 38.8071174621582 0 50 11.1928825378418 50 25 C 50 38.8071174621582 38.8071174621582 50 25 50 C 11.1928825378418 50 0 38.8071174621582 0 25 C 0 11.1928825378418 11.1928825378418 0 25 0 Z" stroke="none" fill="#fff"/>
  </g>
  <text id="_2" data-name="2" transform="translate(17 33)" font-size="24" font-family="SegoeUI-Bold, Segoe UI" font-weight="700"><tspan x="0" y="0">2</tspan></text>
</svg>
