<svg xmlns="http://www.w3.org/2000/svg" width="908" height="908" viewBox="0 0 908 908">
  <g id="그룹_545" data-name="그룹 545" transform="translate(-105 -11311)" opacity="0.2">
    <g id="타원_347" data-name="타원 347" transform="translate(105 11311)" fill="none" stroke="#fff" stroke-width="36">
      <circle cx="138" cy="138" r="138" stroke="none"/>
      <circle cx="138" cy="138" r="120" fill="none"/>
    </g>
    <g id="타원_350" data-name="타원 350" transform="translate(105 11627)" fill="none" stroke="#fff" stroke-width="36">
      <circle cx="138" cy="138" r="138" stroke="none"/>
      <circle cx="138" cy="138" r="120" fill="none"/>
    </g>
    <g id="타원_353" data-name="타원 353" transform="translate(105 11943)" fill="none" stroke="#fff" stroke-width="36">
      <circle cx="138" cy="138" r="138" stroke="none"/>
      <circle cx="138" cy="138" r="120" fill="none"/>
    </g>
    <g id="타원_348" data-name="타원 348" transform="translate(421 11311)" fill="none" stroke="#fff" stroke-width="36">
      <circle cx="138" cy="138" r="138" stroke="none"/>
      <circle cx="138" cy="138" r="120" fill="none"/>
    </g>
    <g id="타원_349" data-name="타원 349" transform="translate(737 11311)" fill="none" stroke="#fff" stroke-width="36">
      <circle cx="138" cy="138" r="138" stroke="none"/>
      <circle cx="138" cy="138" r="120" fill="none"/>
    </g>
    <g id="타원_351" data-name="타원 351" transform="translate(421 11627)" fill="none" stroke="#fff" stroke-width="36">
      <circle cx="138" cy="138" r="138" stroke="none"/>
      <circle cx="138" cy="138" r="120" fill="none"/>
    </g>
    <g id="타원_352" data-name="타원 352" transform="translate(737 11627)" fill="none" stroke="#fff" stroke-width="36">
      <circle cx="138" cy="138" r="138" stroke="none"/>
      <circle cx="138" cy="138" r="120" fill="none"/>
    </g>
    <g id="타원_354" data-name="타원 354" transform="translate(421 11943)" fill="none" stroke="#fff" stroke-width="36">
      <circle cx="138" cy="138" r="138" stroke="none"/>
      <circle cx="138" cy="138" r="120" fill="none"/>
    </g>
    <g id="타원_355" data-name="타원 355" transform="translate(737 11943)" fill="none" stroke="#fff" stroke-width="36">
      <circle cx="138" cy="138" r="138" stroke="none"/>
      <circle cx="138" cy="138" r="120" fill="none"/>
    </g>
  </g>
</svg>
